<svg xmlns="http://www.w3.org/2000/svg" width="691" height="93" viewBox="0 0 691 93">
  <rect width="100%" height="100%" fill="transparent"/>
  <rect x="2" y="2" width="11" height="11" rx="2" ry="2" fill="#9be9a8"><title>2024-11-24: 8 contributions</title></rect>
<rect x="2" y="15" width="11" height="11" rx="2" ry="2" fill="#9be9a8"><title>2024-11-25: 8 contributions</title></rect>
<rect x="2" y="28" width="11" height="11" rx="2" ry="2" fill="#9be9a8"><title>2024-11-26: 3 contributions</title></rect>
<rect x="2" y="41" width="11" height="11" rx="2" ry="2" fill="#ebedf0"><title>2024-11-27: 0 contributions</title></rect>
<rect x="2" y="54" width="11" height="11" rx="2" ry="2" fill="#9be9a8"><title>2024-11-28: 1 contributions</title></rect>
<rect x="2" y="67" width="11" height="11" rx="2" ry="2" fill="#9be9a8"><title>2024-11-29: 7 contributions</title></rect>
<rect x="2" y="80" width="11" height="11" rx="2" ry="2" fill="#ebedf0"><title>2024-11-30: 0 contributions</title></rect>
<rect x="15" y="2" width="11" height="11" rx="2" ry="2" fill="#ebedf0"><title>2024-12-01: 0 contributions</title></rect>
<rect x="15" y="15" width="11" height="11" rx="2" ry="2" fill="#ebedf0"><title>2024-12-02: 0 contributions</title></rect>
<rect x="15" y="28" width="11" height="11" rx="2" ry="2" fill="#ebedf0"><title>2024-12-03: 0 contributions</title></rect>
<rect x="15" y="41" width="11" height="11" rx="2" ry="2" fill="#ebedf0"><title>2024-12-04: 0 contributions</title></rect>
<rect x="15" y="54" width="11" height="11" rx="2" ry="2" fill="#9be9a8"><title>2024-12-05: 2 contributions</title></rect>
<rect x="15" y="67" width="11" height="11" rx="2" ry="2" fill="#ebedf0"><title>2024-12-06: 0 contributions</title></rect>
<rect x="15" y="80" width="11" height="11" rx="2" ry="2" fill="#ebedf0"><title>2024-12-07: 0 contributions</title></rect>
<rect x="28" y="2" width="11" height="11" rx="2" ry="2" fill="#9be9a8"><title>2024-12-08: 12 contributions</title></rect>
<rect x="28" y="15" width="11" height="11" rx="2" ry="2" fill="#9be9a8"><title>2024-12-09: 8 contributions</title></rect>
<rect x="28" y="28" width="11" height="11" rx="2" ry="2" fill="#ebedf0"><title>2024-12-10: 0 contributions</title></rect>
<rect x="28" y="41" width="11" height="11" rx="2" ry="2" fill="#ebedf0"><title>2024-12-11: 0 contributions</title></rect>
<rect x="28" y="54" width="11" height="11" rx="2" ry="2" fill="#9be9a8"><title>2024-12-12: 5 contributions</title></rect>
<rect x="28" y="67" width="11" height="11" rx="2" ry="2" fill="#9be9a8"><title>2024-12-13: 7 contributions</title></rect>
<rect x="28" y="80" width="11" height="11" rx="2" ry="2" fill="#9be9a8"><title>2024-12-14: 2 contributions</title></rect>
<rect x="41" y="2" width="11" height="11" rx="2" ry="2" fill="#ebedf0"><title>2024-12-15: 0 contributions</title></rect>
<rect x="41" y="15" width="11" height="11" rx="2" ry="2" fill="#40c463"><title>2024-12-16: 13 contributions</title></rect>
<rect x="41" y="28" width="11" height="11" rx="2" ry="2" fill="#9be9a8"><title>2024-12-17: 6 contributions</title></rect>
<rect x="41" y="41" width="11" height="11" rx="2" ry="2" fill="#9be9a8"><title>2024-12-18: 6 contributions</title></rect>
<rect x="41" y="54" width="11" height="11" rx="2" ry="2" fill="#9be9a8"><title>2024-12-19: 11 contributions</title></rect>
<rect x="41" y="67" width="11" height="11" rx="2" ry="2" fill="#9be9a8"><title>2024-12-20: 5 contributions</title></rect>
<rect x="41" y="80" width="11" height="11" rx="2" ry="2" fill="#9be9a8"><title>2024-12-21: 1 contributions</title></rect>
<rect x="54" y="2" width="11" height="11" rx="2" ry="2" fill="#ebedf0"><title>2024-12-22: 0 contributions</title></rect>
<rect x="54" y="15" width="11" height="11" rx="2" ry="2" fill="#9be9a8"><title>2024-12-23: 1 contributions</title></rect>
<rect x="54" y="28" width="11" height="11" rx="2" ry="2" fill="#9be9a8"><title>2024-12-24: 1 contributions</title></rect>
<rect x="54" y="41" width="11" height="11" rx="2" ry="2" fill="#9be9a8"><title>2024-12-25: 4 contributions</title></rect>
<rect x="54" y="54" width="11" height="11" rx="2" ry="2" fill="#ebedf0"><title>2024-12-26: 0 contributions</title></rect>
<rect x="54" y="67" width="11" height="11" rx="2" ry="2" fill="#ebedf0"><title>2024-12-27: 0 contributions</title></rect>
<rect x="54" y="80" width="11" height="11" rx="2" ry="2" fill="#9be9a8"><title>2024-12-28: 1 contributions</title></rect>
<rect x="67" y="2" width="11" height="11" rx="2" ry="2" fill="#9be9a8"><title>2024-12-29: 8 contributions</title></rect>
<rect x="67" y="15" width="11" height="11" rx="2" ry="2" fill="#9be9a8"><title>2024-12-30: 3 contributions</title></rect>
<rect x="67" y="28" width="11" height="11" rx="2" ry="2" fill="#9be9a8"><title>2024-12-31: 4 contributions</title></rect>
<rect x="67" y="41" width="11" height="11" rx="2" ry="2" fill="#9be9a8"><title>2025-01-01: 1 contributions</title></rect>
<rect x="67" y="54" width="11" height="11" rx="2" ry="2" fill="#9be9a8"><title>2025-01-02: 1 contributions</title></rect>
<rect x="67" y="67" width="11" height="11" rx="2" ry="2" fill="#9be9a8"><title>2025-01-03: 9 contributions</title></rect>
<rect x="67" y="80" width="11" height="11" rx="2" ry="2" fill="#9be9a8"><title>2025-01-04: 2 contributions</title></rect>
<rect x="80" y="2" width="11" height="11" rx="2" ry="2" fill="#9be9a8"><title>2025-01-05: 1 contributions</title></rect>
<rect x="80" y="15" width="11" height="11" rx="2" ry="2" fill="#ebedf0"><title>2025-01-06: 0 contributions</title></rect>
<rect x="80" y="28" width="11" height="11" rx="2" ry="2" fill="#ebedf0"><title>2025-01-07: 0 contributions</title></rect>
<rect x="80" y="41" width="11" height="11" rx="2" ry="2" fill="#ebedf0"><title>2025-01-08: 0 contributions</title></rect>
<rect x="80" y="54" width="11" height="11" rx="2" ry="2" fill="#ebedf0"><title>2025-01-09: 0 contributions</title></rect>
<rect x="80" y="67" width="11" height="11" rx="2" ry="2" fill="#ebedf0"><title>2025-01-10: 0 contributions</title></rect>
<rect x="80" y="80" width="11" height="11" rx="2" ry="2" fill="#ebedf0"><title>2025-01-11: 0 contributions</title></rect>
<rect x="93" y="2" width="11" height="11" rx="2" ry="2" fill="#ebedf0"><title>2025-01-12: 0 contributions</title></rect>
<rect x="93" y="15" width="11" height="11" rx="2" ry="2" fill="#ebedf0"><title>2025-01-13: 0 contributions</title></rect>
<rect x="93" y="28" width="11" height="11" rx="2" ry="2" fill="#9be9a8"><title>2025-01-14: 5 contributions</title></rect>
<rect x="93" y="41" width="11" height="11" rx="2" ry="2" fill="#ebedf0"><title>2025-01-15: 0 contributions</title></rect>
<rect x="93" y="54" width="11" height="11" rx="2" ry="2" fill="#ebedf0"><title>2025-01-16: 0 contributions</title></rect>
<rect x="93" y="67" width="11" height="11" rx="2" ry="2" fill="#ebedf0"><title>2025-01-17: 0 contributions</title></rect>
<rect x="93" y="80" width="11" height="11" rx="2" ry="2" fill="#ebedf0"><title>2025-01-18: 0 contributions</title></rect>
<rect x="106" y="2" width="11" height="11" rx="2" ry="2" fill="#ebedf0"><title>2025-01-19: 0 contributions</title></rect>
<rect x="106" y="15" width="11" height="11" rx="2" ry="2" fill="#ebedf0"><title>2025-01-20: 0 contributions</title></rect>
<rect x="106" y="28" width="11" height="11" rx="2" ry="2" fill="#ebedf0"><title>2025-01-21: 0 contributions</title></rect>
<rect x="106" y="41" width="11" height="11" rx="2" ry="2" fill="#ebedf0"><title>2025-01-22: 0 contributions</title></rect>
<rect x="106" y="54" width="11" height="11" rx="2" ry="2" fill="#ebedf0"><title>2025-01-23: 0 contributions</title></rect>
<rect x="106" y="67" width="11" height="11" rx="2" ry="2" fill="#ebedf0"><title>2025-01-24: 0 contributions</title></rect>
<rect x="106" y="80" width="11" height="11" rx="2" ry="2" fill="#ebedf0"><title>2025-01-25: 0 contributions</title></rect>
<rect x="119" y="2" width="11" height="11" rx="2" ry="2" fill="#ebedf0"><title>2025-01-26: 0 contributions</title></rect>
<rect x="119" y="15" width="11" height="11" rx="2" ry="2" fill="#ebedf0"><title>2025-01-27: 0 contributions</title></rect>
<rect x="119" y="28" width="11" height="11" rx="2" ry="2" fill="#ebedf0"><title>2025-01-28: 0 contributions</title></rect>
<rect x="119" y="41" width="11" height="11" rx="2" ry="2" fill="#ebedf0"><title>2025-01-29: 0 contributions</title></rect>
<rect x="119" y="54" width="11" height="11" rx="2" ry="2" fill="#ebedf0"><title>2025-01-30: 0 contributions</title></rect>
<rect x="119" y="67" width="11" height="11" rx="2" ry="2" fill="#ebedf0"><title>2025-01-31: 0 contributions</title></rect>
<rect x="119" y="80" width="11" height="11" rx="2" ry="2" fill="#ebedf0"><title>2025-02-01: 0 contributions</title></rect>
<rect x="132" y="2" width="11" height="11" rx="2" ry="2" fill="#ebedf0"><title>2025-02-02: 0 contributions</title></rect>
<rect x="132" y="15" width="11" height="11" rx="2" ry="2" fill="#ebedf0"><title>2025-02-03: 0 contributions</title></rect>
<rect x="132" y="28" width="11" height="11" rx="2" ry="2" fill="#ebedf0"><title>2025-02-04: 0 contributions</title></rect>
<rect x="132" y="41" width="11" height="11" rx="2" ry="2" fill="#ebedf0"><title>2025-02-05: 0 contributions</title></rect>
<rect x="132" y="54" width="11" height="11" rx="2" ry="2" fill="#ebedf0"><title>2025-02-06: 0 contributions</title></rect>
<rect x="132" y="67" width="11" height="11" rx="2" ry="2" fill="#ebedf0"><title>2025-02-07: 0 contributions</title></rect>
<rect x="132" y="80" width="11" height="11" rx="2" ry="2" fill="#ebedf0"><title>2025-02-08: 0 contributions</title></rect>
<rect x="145" y="2" width="11" height="11" rx="2" ry="2" fill="#ebedf0"><title>2025-02-09: 0 contributions</title></rect>
<rect x="145" y="15" width="11" height="11" rx="2" ry="2" fill="#ebedf0"><title>2025-02-10: 0 contributions</title></rect>
<rect x="145" y="28" width="11" height="11" rx="2" ry="2" fill="#ebedf0"><title>2025-02-11: 0 contributions</title></rect>
<rect x="145" y="41" width="11" height="11" rx="2" ry="2" fill="#ebedf0"><title>2025-02-12: 0 contributions</title></rect>
<rect x="145" y="54" width="11" height="11" rx="2" ry="2" fill="#ebedf0"><title>2025-02-13: 0 contributions</title></rect>
<rect x="145" y="67" width="11" height="11" rx="2" ry="2" fill="#ebedf0"><title>2025-02-14: 0 contributions</title></rect>
<rect x="145" y="80" width="11" height="11" rx="2" ry="2" fill="#ebedf0"><title>2025-02-15: 0 contributions</title></rect>
<rect x="158" y="2" width="11" height="11" rx="2" ry="2" fill="#ebedf0"><title>2025-02-16: 0 contributions</title></rect>
<rect x="158" y="15" width="11" height="11" rx="2" ry="2" fill="#ebedf0"><title>2025-02-17: 0 contributions</title></rect>
<rect x="158" y="28" width="11" height="11" rx="2" ry="2" fill="#ebedf0"><title>2025-02-18: 0 contributions</title></rect>
<rect x="158" y="41" width="11" height="11" rx="2" ry="2" fill="#ebedf0"><title>2025-02-19: 0 contributions</title></rect>
<rect x="158" y="54" width="11" height="11" rx="2" ry="2" fill="#ebedf0"><title>2025-02-20: 0 contributions</title></rect>
<rect x="158" y="67" width="11" height="11" rx="2" ry="2" fill="#ebedf0"><title>2025-02-21: 0 contributions</title></rect>
<rect x="158" y="80" width="11" height="11" rx="2" ry="2" fill="#ebedf0"><title>2025-02-22: 0 contributions</title></rect>
<rect x="171" y="2" width="11" height="11" rx="2" ry="2" fill="#ebedf0"><title>2025-02-23: 0 contributions</title></rect>
<rect x="171" y="15" width="11" height="11" rx="2" ry="2" fill="#ebedf0"><title>2025-02-24: 0 contributions</title></rect>
<rect x="171" y="28" width="11" height="11" rx="2" ry="2" fill="#ebedf0"><title>2025-02-25: 0 contributions</title></rect>
<rect x="171" y="41" width="11" height="11" rx="2" ry="2" fill="#ebedf0"><title>2025-02-26: 0 contributions</title></rect>
<rect x="171" y="54" width="11" height="11" rx="2" ry="2" fill="#ebedf0"><title>2025-02-27: 0 contributions</title></rect>
<rect x="171" y="67" width="11" height="11" rx="2" ry="2" fill="#ebedf0"><title>2025-02-28: 0 contributions</title></rect>
<rect x="171" y="80" width="11" height="11" rx="2" ry="2" fill="#9be9a8"><title>2025-03-01: 5 contributions</title></rect>
<rect x="184" y="2" width="11" height="11" rx="2" ry="2" fill="#ebedf0"><title>2025-03-02: 0 contributions</title></rect>
<rect x="184" y="15" width="11" height="11" rx="2" ry="2" fill="#ebedf0"><title>2025-03-03: 0 contributions</title></rect>
<rect x="184" y="28" width="11" height="11" rx="2" ry="2" fill="#ebedf0"><title>2025-03-04: 0 contributions</title></rect>
<rect x="184" y="41" width="11" height="11" rx="2" ry="2" fill="#ebedf0"><title>2025-03-05: 0 contributions</title></rect>
<rect x="184" y="54" width="11" height="11" rx="2" ry="2" fill="#9be9a8"><title>2025-03-06: 1 contributions</title></rect>
<rect x="184" y="67" width="11" height="11" rx="2" ry="2" fill="#ebedf0"><title>2025-03-07: 0 contributions</title></rect>
<rect x="184" y="80" width="11" height="11" rx="2" ry="2" fill="#ebedf0"><title>2025-03-08: 0 contributions</title></rect>
<rect x="197" y="2" width="11" height="11" rx="2" ry="2" fill="#ebedf0"><title>2025-03-09: 0 contributions</title></rect>
<rect x="197" y="15" width="11" height="11" rx="2" ry="2" fill="#ebedf0"><title>2025-03-10: 0 contributions</title></rect>
<rect x="197" y="28" width="11" height="11" rx="2" ry="2" fill="#ebedf0"><title>2025-03-11: 0 contributions</title></rect>
<rect x="197" y="41" width="11" height="11" rx="2" ry="2" fill="#9be9a8"><title>2025-03-12: 2 contributions</title></rect>
<rect x="197" y="54" width="11" height="11" rx="2" ry="2" fill="#ebedf0"><title>2025-03-13: 0 contributions</title></rect>
<rect x="197" y="67" width="11" height="11" rx="2" ry="2" fill="#9be9a8"><title>2025-03-14: 3 contributions</title></rect>
<rect x="197" y="80" width="11" height="11" rx="2" ry="2" fill="#40c463"><title>2025-03-15: 22 contributions</title></rect>
<rect x="210" y="2" width="11" height="11" rx="2" ry="2" fill="#ebedf0"><title>2025-03-16: 0 contributions</title></rect>
<rect x="210" y="15" width="11" height="11" rx="2" ry="2" fill="#40c463"><title>2025-03-17: 14 contributions</title></rect>
<rect x="210" y="28" width="11" height="11" rx="2" ry="2" fill="#9be9a8"><title>2025-03-18: 11 contributions</title></rect>
<rect x="210" y="41" width="11" height="11" rx="2" ry="2" fill="#ebedf0"><title>2025-03-19: 0 contributions</title></rect>
<rect x="210" y="54" width="11" height="11" rx="2" ry="2" fill="#9be9a8"><title>2025-03-20: 1 contributions</title></rect>
<rect x="210" y="67" width="11" height="11" rx="2" ry="2" fill="#ebedf0"><title>2025-03-21: 0 contributions</title></rect>
<rect x="210" y="80" width="11" height="11" rx="2" ry="2" fill="#9be9a8"><title>2025-03-22: 10 contributions</title></rect>
<rect x="223" y="2" width="11" height="11" rx="2" ry="2" fill="#30a14e"><title>2025-03-23: 30 contributions</title></rect>
<rect x="223" y="15" width="11" height="11" rx="2" ry="2" fill="#ebedf0"><title>2025-03-24: 0 contributions</title></rect>
<rect x="223" y="28" width="11" height="11" rx="2" ry="2" fill="#ebedf0"><title>2025-03-25: 0 contributions</title></rect>
<rect x="223" y="41" width="11" height="11" rx="2" ry="2" fill="#ebedf0"><title>2025-03-26: 0 contributions</title></rect>
<rect x="223" y="54" width="11" height="11" rx="2" ry="2" fill="#ebedf0"><title>2025-03-27: 0 contributions</title></rect>
<rect x="223" y="67" width="11" height="11" rx="2" ry="2" fill="#9be9a8"><title>2025-03-28: 5 contributions</title></rect>
<rect x="223" y="80" width="11" height="11" rx="2" ry="2" fill="#9be9a8"><title>2025-03-29: 10 contributions</title></rect>
<rect x="236" y="2" width="11" height="11" rx="2" ry="2" fill="#9be9a8"><title>2025-03-30: 11 contributions</title></rect>
<rect x="236" y="15" width="11" height="11" rx="2" ry="2" fill="#9be9a8"><title>2025-03-31: 11 contributions</title></rect>
<rect x="236" y="28" width="11" height="11" rx="2" ry="2" fill="#9be9a8"><title>2025-04-01: 4 contributions</title></rect>
<rect x="236" y="41" width="11" height="11" rx="2" ry="2" fill="#9be9a8"><title>2025-04-02: 2 contributions</title></rect>
<rect x="236" y="54" width="11" height="11" rx="2" ry="2" fill="#9be9a8"><title>2025-04-03: 1 contributions</title></rect>
<rect x="236" y="67" width="11" height="11" rx="2" ry="2" fill="#ebedf0"><title>2025-04-04: 0 contributions</title></rect>
<rect x="236" y="80" width="11" height="11" rx="2" ry="2" fill="#ebedf0"><title>2025-04-05: 0 contributions</title></rect>
<rect x="249" y="2" width="11" height="11" rx="2" ry="2" fill="#ebedf0"><title>2025-04-06: 0 contributions</title></rect>
<rect x="249" y="15" width="11" height="11" rx="2" ry="2" fill="#ebedf0"><title>2025-04-07: 0 contributions</title></rect>
<rect x="249" y="28" width="11" height="11" rx="2" ry="2" fill="#9be9a8"><title>2025-04-08: 1 contributions</title></rect>
<rect x="249" y="41" width="11" height="11" rx="2" ry="2" fill="#9be9a8"><title>2025-04-09: 7 contributions</title></rect>
<rect x="249" y="54" width="11" height="11" rx="2" ry="2" fill="#ebedf0"><title>2025-04-10: 0 contributions</title></rect>
<rect x="249" y="67" width="11" height="11" rx="2" ry="2" fill="#9be9a8"><title>2025-04-11: 1 contributions</title></rect>
<rect x="249" y="80" width="11" height="11" rx="2" ry="2" fill="#9be9a8"><title>2025-04-12: 10 contributions</title></rect>
<rect x="262" y="2" width="11" height="11" rx="2" ry="2" fill="#9be9a8"><title>2025-04-13: 8 contributions</title></rect>
<rect x="262" y="15" width="11" height="11" rx="2" ry="2" fill="#ebedf0"><title>2025-04-14: 0 contributions</title></rect>
<rect x="262" y="28" width="11" height="11" rx="2" ry="2" fill="#ebedf0"><title>2025-04-15: 0 contributions</title></rect>
<rect x="262" y="41" width="11" height="11" rx="2" ry="2" fill="#9be9a8"><title>2025-04-16: 2 contributions</title></rect>
<rect x="262" y="54" width="11" height="11" rx="2" ry="2" fill="#9be9a8"><title>2025-04-17: 3 contributions</title></rect>
<rect x="262" y="67" width="11" height="11" rx="2" ry="2" fill="#ebedf0"><title>2025-04-18: 0 contributions</title></rect>
<rect x="262" y="80" width="11" height="11" rx="2" ry="2" fill="#9be9a8"><title>2025-04-19: 1 contributions</title></rect>
<rect x="275" y="2" width="11" height="11" rx="2" ry="2" fill="#9be9a8"><title>2025-04-20: 10 contributions</title></rect>
<rect x="275" y="15" width="11" height="11" rx="2" ry="2" fill="#9be9a8"><title>2025-04-21: 7 contributions</title></rect>
<rect x="275" y="28" width="11" height="11" rx="2" ry="2" fill="#ebedf0"><title>2025-04-22: 0 contributions</title></rect>
<rect x="275" y="41" width="11" height="11" rx="2" ry="2" fill="#ebedf0"><title>2025-04-23: 0 contributions</title></rect>
<rect x="275" y="54" width="11" height="11" rx="2" ry="2" fill="#9be9a8"><title>2025-04-24: 1 contributions</title></rect>
<rect x="275" y="67" width="11" height="11" rx="2" ry="2" fill="#9be9a8"><title>2025-04-25: 6 contributions</title></rect>
<rect x="275" y="80" width="11" height="11" rx="2" ry="2" fill="#ebedf0"><title>2025-04-26: 0 contributions</title></rect>
<rect x="288" y="2" width="11" height="11" rx="2" ry="2" fill="#9be9a8"><title>2025-04-27: 1 contributions</title></rect>
<rect x="288" y="15" width="11" height="11" rx="2" ry="2" fill="#ebedf0"><title>2025-04-28: 0 contributions</title></rect>
<rect x="288" y="28" width="11" height="11" rx="2" ry="2" fill="#ebedf0"><title>2025-04-29: 0 contributions</title></rect>
<rect x="288" y="41" width="11" height="11" rx="2" ry="2" fill="#ebedf0"><title>2025-04-30: 0 contributions</title></rect>
<rect x="288" y="54" width="11" height="11" rx="2" ry="2" fill="#9be9a8"><title>2025-05-01: 7 contributions</title></rect>
<rect x="288" y="67" width="11" height="11" rx="2" ry="2" fill="#9be9a8"><title>2025-05-02: 5 contributions</title></rect>
<rect x="288" y="80" width="11" height="11" rx="2" ry="2" fill="#9be9a8"><title>2025-05-03: 1 contributions</title></rect>
<rect x="301" y="2" width="11" height="11" rx="2" ry="2" fill="#ebedf0"><title>2025-05-04: 0 contributions</title></rect>
<rect x="301" y="15" width="11" height="11" rx="2" ry="2" fill="#ebedf0"><title>2025-05-05: 0 contributions</title></rect>
<rect x="301" y="28" width="11" height="11" rx="2" ry="2" fill="#9be9a8"><title>2025-05-06: 2 contributions</title></rect>
<rect x="301" y="41" width="11" height="11" rx="2" ry="2" fill="#ebedf0"><title>2025-05-07: 0 contributions</title></rect>
<rect x="301" y="54" width="11" height="11" rx="2" ry="2" fill="#9be9a8"><title>2025-05-08: 1 contributions</title></rect>
<rect x="301" y="67" width="11" height="11" rx="2" ry="2" fill="#ebedf0"><title>2025-05-09: 0 contributions</title></rect>
<rect x="301" y="80" width="11" height="11" rx="2" ry="2" fill="#ebedf0"><title>2025-05-10: 0 contributions</title></rect>
<rect x="314" y="2" width="11" height="11" rx="2" ry="2" fill="#ebedf0"><title>2025-05-11: 0 contributions</title></rect>
<rect x="314" y="15" width="11" height="11" rx="2" ry="2" fill="#ebedf0"><title>2025-05-12: 0 contributions</title></rect>
<rect x="314" y="28" width="11" height="11" rx="2" ry="2" fill="#ebedf0"><title>2025-05-13: 0 contributions</title></rect>
<rect x="314" y="41" width="11" height="11" rx="2" ry="2" fill="#9be9a8"><title>2025-05-14: 3 contributions</title></rect>
<rect x="314" y="54" width="11" height="11" rx="2" ry="2" fill="#9be9a8"><title>2025-05-15: 9 contributions</title></rect>
<rect x="314" y="67" width="11" height="11" rx="2" ry="2" fill="#9be9a8"><title>2025-05-16: 9 contributions</title></rect>
<rect x="314" y="80" width="11" height="11" rx="2" ry="2" fill="#ebedf0"><title>2025-05-17: 0 contributions</title></rect>
<rect x="327" y="2" width="11" height="11" rx="2" ry="2" fill="#ebedf0"><title>2025-05-18: 0 contributions</title></rect>
<rect x="327" y="15" width="11" height="11" rx="2" ry="2" fill="#ebedf0"><title>2025-05-19: 0 contributions</title></rect>
<rect x="327" y="28" width="11" height="11" rx="2" ry="2" fill="#ebedf0"><title>2025-05-20: 0 contributions</title></rect>
<rect x="327" y="41" width="11" height="11" rx="2" ry="2" fill="#9be9a8"><title>2025-05-21: 2 contributions</title></rect>
<rect x="327" y="54" width="11" height="11" rx="2" ry="2" fill="#ebedf0"><title>2025-05-22: 0 contributions</title></rect>
<rect x="327" y="67" width="11" height="11" rx="2" ry="2" fill="#ebedf0"><title>2025-05-23: 0 contributions</title></rect>
<rect x="327" y="80" width="11" height="11" rx="2" ry="2" fill="#ebedf0"><title>2025-05-24: 0 contributions</title></rect>
<rect x="340" y="2" width="11" height="11" rx="2" ry="2" fill="#ebedf0"><title>2025-05-25: 0 contributions</title></rect>
<rect x="340" y="15" width="11" height="11" rx="2" ry="2" fill="#ebedf0"><title>2025-05-26: 0 contributions</title></rect>
<rect x="340" y="28" width="11" height="11" rx="2" ry="2" fill="#ebedf0"><title>2025-05-27: 0 contributions</title></rect>
<rect x="340" y="41" width="11" height="11" rx="2" ry="2" fill="#ebedf0"><title>2025-05-28: 0 contributions</title></rect>
<rect x="340" y="54" width="11" height="11" rx="2" ry="2" fill="#ebedf0"><title>2025-05-29: 0 contributions</title></rect>
<rect x="340" y="67" width="11" height="11" rx="2" ry="2" fill="#ebedf0"><title>2025-05-30: 0 contributions</title></rect>
<rect x="340" y="80" width="11" height="11" rx="2" ry="2" fill="#ebedf0"><title>2025-05-31: 0 contributions</title></rect>
<rect x="353" y="2" width="11" height="11" rx="2" ry="2" fill="#ebedf0"><title>2025-06-01: 0 contributions</title></rect>
<rect x="353" y="15" width="11" height="11" rx="2" ry="2" fill="#9be9a8"><title>2025-06-02: 3 contributions</title></rect>
<rect x="353" y="28" width="11" height="11" rx="2" ry="2" fill="#9be9a8"><title>2025-06-03: 1 contributions</title></rect>
<rect x="353" y="41" width="11" height="11" rx="2" ry="2" fill="#9be9a8"><title>2025-06-04: 1 contributions</title></rect>
<rect x="353" y="54" width="11" height="11" rx="2" ry="2" fill="#9be9a8"><title>2025-06-05: 1 contributions</title></rect>
<rect x="353" y="67" width="11" height="11" rx="2" ry="2" fill="#40c463"><title>2025-06-06: 15 contributions</title></rect>
<rect x="353" y="80" width="11" height="11" rx="2" ry="2" fill="#ebedf0"><title>2025-06-07: 0 contributions</title></rect>
<rect x="366" y="2" width="11" height="11" rx="2" ry="2" fill="#40c463"><title>2025-06-08: 13 contributions</title></rect>
<rect x="366" y="15" width="11" height="11" rx="2" ry="2" fill="#30a14e"><title>2025-06-09: 29 contributions</title></rect>
<rect x="366" y="28" width="11" height="11" rx="2" ry="2" fill="#216e39"><title>2025-06-10: 70 contributions</title></rect>
<rect x="366" y="41" width="11" height="11" rx="2" ry="2" fill="#40c463"><title>2025-06-11: 21 contributions</title></rect>
<rect x="366" y="54" width="11" height="11" rx="2" ry="2" fill="#40c463"><title>2025-06-12: 15 contributions</title></rect>
<rect x="366" y="67" width="11" height="11" rx="2" ry="2" fill="#30a14e"><title>2025-06-13: 28 contributions</title></rect>
<rect x="366" y="80" width="11" height="11" rx="2" ry="2" fill="#9be9a8"><title>2025-06-14: 9 contributions</title></rect>
<rect x="379" y="2" width="11" height="11" rx="2" ry="2" fill="#30a14e"><title>2025-06-15: 28 contributions</title></rect>
<rect x="379" y="15" width="11" height="11" rx="2" ry="2" fill="#9be9a8"><title>2025-06-16: 10 contributions</title></rect>
<rect x="379" y="28" width="11" height="11" rx="2" ry="2" fill="#9be9a8"><title>2025-06-17: 7 contributions</title></rect>
<rect x="379" y="41" width="11" height="11" rx="2" ry="2" fill="#9be9a8"><title>2025-06-18: 2 contributions</title></rect>
<rect x="379" y="54" width="11" height="11" rx="2" ry="2" fill="#9be9a8"><title>2025-06-19: 5 contributions</title></rect>
<rect x="379" y="67" width="11" height="11" rx="2" ry="2" fill="#9be9a8"><title>2025-06-20: 1 contributions</title></rect>
<rect x="379" y="80" width="11" height="11" rx="2" ry="2" fill="#ebedf0"><title>2025-06-21: 0 contributions</title></rect>
<rect x="392" y="2" width="11" height="11" rx="2" ry="2" fill="#ebedf0"><title>2025-06-22: 0 contributions</title></rect>
<rect x="392" y="15" width="11" height="11" rx="2" ry="2" fill="#9be9a8"><title>2025-06-23: 1 contributions</title></rect>
<rect x="392" y="28" width="11" height="11" rx="2" ry="2" fill="#9be9a8"><title>2025-06-24: 2 contributions</title></rect>
<rect x="392" y="41" width="11" height="11" rx="2" ry="2" fill="#ebedf0"><title>2025-06-25: 0 contributions</title></rect>
<rect x="392" y="54" width="11" height="11" rx="2" ry="2" fill="#9be9a8"><title>2025-06-26: 1 contributions</title></rect>
<rect x="392" y="67" width="11" height="11" rx="2" ry="2" fill="#ebedf0"><title>2025-06-27: 0 contributions</title></rect>
<rect x="392" y="80" width="11" height="11" rx="2" ry="2" fill="#ebedf0"><title>2025-06-28: 0 contributions</title></rect>
<rect x="405" y="2" width="11" height="11" rx="2" ry="2" fill="#ebedf0"><title>2025-06-29: 0 contributions</title></rect>
<rect x="405" y="15" width="11" height="11" rx="2" ry="2" fill="#ebedf0"><title>2025-06-30: 0 contributions</title></rect>
<rect x="405" y="28" width="11" height="11" rx="2" ry="2" fill="#ebedf0"><title>2025-07-01: 0 contributions</title></rect>
<rect x="405" y="41" width="11" height="11" rx="2" ry="2" fill="#9be9a8"><title>2025-07-02: 3 contributions</title></rect>
<rect x="405" y="54" width="11" height="11" rx="2" ry="2" fill="#9be9a8"><title>2025-07-03: 1 contributions</title></rect>
<rect x="405" y="67" width="11" height="11" rx="2" ry="2" fill="#ebedf0"><title>2025-07-04: 0 contributions</title></rect>
<rect x="405" y="80" width="11" height="11" rx="2" ry="2" fill="#ebedf0"><title>2025-07-05: 0 contributions</title></rect>
<rect x="418" y="2" width="11" height="11" rx="2" ry="2" fill="#ebedf0"><title>2025-07-06: 0 contributions</title></rect>
<rect x="418" y="15" width="11" height="11" rx="2" ry="2" fill="#ebedf0"><title>2025-07-07: 0 contributions</title></rect>
<rect x="418" y="28" width="11" height="11" rx="2" ry="2" fill="#9be9a8"><title>2025-07-08: 1 contributions</title></rect>
<rect x="418" y="41" width="11" height="11" rx="2" ry="2" fill="#ebedf0"><title>2025-07-09: 0 contributions</title></rect>
<rect x="418" y="54" width="11" height="11" rx="2" ry="2" fill="#9be9a8"><title>2025-07-10: 1 contributions</title></rect>
<rect x="418" y="67" width="11" height="11" rx="2" ry="2" fill="#ebedf0"><title>2025-07-11: 0 contributions</title></rect>
<rect x="418" y="80" width="11" height="11" rx="2" ry="2" fill="#40c463"><title>2025-07-12: 25 contributions</title></rect>
<rect x="431" y="2" width="11" height="11" rx="2" ry="2" fill="#ebedf0"><title>2025-07-13: 0 contributions</title></rect>
<rect x="431" y="15" width="11" height="11" rx="2" ry="2" fill="#ebedf0"><title>2025-07-14: 0 contributions</title></rect>
<rect x="431" y="28" width="11" height="11" rx="2" ry="2" fill="#9be9a8"><title>2025-07-15: 4 contributions</title></rect>
<rect x="431" y="41" width="11" height="11" rx="2" ry="2" fill="#ebedf0"><title>2025-07-16: 0 contributions</title></rect>
<rect x="431" y="54" width="11" height="11" rx="2" ry="2" fill="#40c463"><title>2025-07-17: 18 contributions</title></rect>
<rect x="431" y="67" width="11" height="11" rx="2" ry="2" fill="#ebedf0"><title>2025-07-18: 0 contributions</title></rect>
<rect x="431" y="80" width="11" height="11" rx="2" ry="2" fill="#ebedf0"><title>2025-07-19: 0 contributions</title></rect>
<rect x="444" y="2" width="11" height="11" rx="2" ry="2" fill="#9be9a8"><title>2025-07-20: 1 contributions</title></rect>
<rect x="444" y="15" width="11" height="11" rx="2" ry="2" fill="#ebedf0"><title>2025-07-21: 0 contributions</title></rect>
<rect x="444" y="28" width="11" height="11" rx="2" ry="2" fill="#ebedf0"><title>2025-07-22: 0 contributions</title></rect>
<rect x="444" y="41" width="11" height="11" rx="2" ry="2" fill="#ebedf0"><title>2025-07-23: 0 contributions</title></rect>
<rect x="444" y="54" width="11" height="11" rx="2" ry="2" fill="#ebedf0"><title>2025-07-24: 0 contributions</title></rect>
<rect x="444" y="67" width="11" height="11" rx="2" ry="2" fill="#9be9a8"><title>2025-07-25: 2 contributions</title></rect>
<rect x="444" y="80" width="11" height="11" rx="2" ry="2" fill="#ebedf0"><title>2025-07-26: 0 contributions</title></rect>
<rect x="457" y="2" width="11" height="11" rx="2" ry="2" fill="#ebedf0"><title>2025-07-27: 0 contributions</title></rect>
<rect x="457" y="15" width="11" height="11" rx="2" ry="2" fill="#9be9a8"><title>2025-07-28: 2 contributions</title></rect>
<rect x="457" y="28" width="11" height="11" rx="2" ry="2" fill="#9be9a8"><title>2025-07-29: 9 contributions</title></rect>
<rect x="457" y="41" width="11" height="11" rx="2" ry="2" fill="#ebedf0"><title>2025-07-30: 0 contributions</title></rect>
<rect x="457" y="54" width="11" height="11" rx="2" ry="2" fill="#ebedf0"><title>2025-07-31: 0 contributions</title></rect>
<rect x="457" y="67" width="11" height="11" rx="2" ry="2" fill="#ebedf0"><title>2025-08-01: 0 contributions</title></rect>
<rect x="457" y="80" width="11" height="11" rx="2" ry="2" fill="#9be9a8"><title>2025-08-02: 1 contributions</title></rect>
<rect x="470" y="2" width="11" height="11" rx="2" ry="2" fill="#ebedf0"><title>2025-08-03: 0 contributions</title></rect>
<rect x="470" y="15" width="11" height="11" rx="2" ry="2" fill="#40c463"><title>2025-08-04: 25 contributions</title></rect>
<rect x="470" y="28" width="11" height="11" rx="2" ry="2" fill="#9be9a8"><title>2025-08-05: 9 contributions</title></rect>
<rect x="470" y="41" width="11" height="11" rx="2" ry="2" fill="#9be9a8"><title>2025-08-06: 2 contributions</title></rect>
<rect x="470" y="54" width="11" height="11" rx="2" ry="2" fill="#ebedf0"><title>2025-08-07: 0 contributions</title></rect>
<rect x="470" y="67" width="11" height="11" rx="2" ry="2" fill="#ebedf0"><title>2025-08-08: 0 contributions</title></rect>
<rect x="470" y="80" width="11" height="11" rx="2" ry="2" fill="#9be9a8"><title>2025-08-09: 1 contributions</title></rect>
<rect x="483" y="2" width="11" height="11" rx="2" ry="2" fill="#ebedf0"><title>2025-08-10: 0 contributions</title></rect>
<rect x="483" y="15" width="11" height="11" rx="2" ry="2" fill="#ebedf0"><title>2025-08-11: 0 contributions</title></rect>
<rect x="483" y="28" width="11" height="11" rx="2" ry="2" fill="#ebedf0"><title>2025-08-12: 0 contributions</title></rect>
<rect x="483" y="41" width="11" height="11" rx="2" ry="2" fill="#ebedf0"><title>2025-08-13: 0 contributions</title></rect>
<rect x="483" y="54" width="11" height="11" rx="2" ry="2" fill="#ebedf0"><title>2025-08-14: 0 contributions</title></rect>
<rect x="483" y="67" width="11" height="11" rx="2" ry="2" fill="#ebedf0"><title>2025-08-15: 0 contributions</title></rect>
<rect x="483" y="80" width="11" height="11" rx="2" ry="2" fill="#ebedf0"><title>2025-08-16: 0 contributions</title></rect>
<rect x="496" y="2" width="11" height="11" rx="2" ry="2" fill="#ebedf0"><title>2025-08-17: 0 contributions</title></rect>
<rect x="496" y="15" width="11" height="11" rx="2" ry="2" fill="#ebedf0"><title>2025-08-18: 0 contributions</title></rect>
<rect x="496" y="28" width="11" height="11" rx="2" ry="2" fill="#ebedf0"><title>2025-08-19: 0 contributions</title></rect>
<rect x="496" y="41" width="11" height="11" rx="2" ry="2" fill="#9be9a8"><title>2025-08-20: 10 contributions</title></rect>
<rect x="496" y="54" width="11" height="11" rx="2" ry="2" fill="#ebedf0"><title>2025-08-21: 0 contributions</title></rect>
<rect x="496" y="67" width="11" height="11" rx="2" ry="2" fill="#ebedf0"><title>2025-08-22: 0 contributions</title></rect>
<rect x="496" y="80" width="11" height="11" rx="2" ry="2" fill="#ebedf0"><title>2025-08-23: 0 contributions</title></rect>
<rect x="509" y="2" width="11" height="11" rx="2" ry="2" fill="#ebedf0"><title>2025-08-24: 0 contributions</title></rect>
<rect x="509" y="15" width="11" height="11" rx="2" ry="2" fill="#9be9a8"><title>2025-08-25: 4 contributions</title></rect>
<rect x="509" y="28" width="11" height="11" rx="2" ry="2" fill="#ebedf0"><title>2025-08-26: 0 contributions</title></rect>
<rect x="509" y="41" width="11" height="11" rx="2" ry="2" fill="#ebedf0"><title>2025-08-27: 0 contributions</title></rect>
<rect x="509" y="54" width="11" height="11" rx="2" ry="2" fill="#9be9a8"><title>2025-08-28: 2 contributions</title></rect>
<rect x="509" y="67" width="11" height="11" rx="2" ry="2" fill="#ebedf0"><title>2025-08-29: 0 contributions</title></rect>
<rect x="509" y="80" width="11" height="11" rx="2" ry="2" fill="#ebedf0"><title>2025-08-30: 0 contributions</title></rect>
<rect x="522" y="2" width="11" height="11" rx="2" ry="2" fill="#9be9a8"><title>2025-08-31: 1 contributions</title></rect>
<rect x="522" y="15" width="11" height="11" rx="2" ry="2" fill="#9be9a8"><title>2025-09-01: 2 contributions</title></rect>
<rect x="522" y="28" width="11" height="11" rx="2" ry="2" fill="#ebedf0"><title>2025-09-02: 0 contributions</title></rect>
<rect x="522" y="41" width="11" height="11" rx="2" ry="2" fill="#ebedf0"><title>2025-09-03: 0 contributions</title></rect>
<rect x="522" y="54" width="11" height="11" rx="2" ry="2" fill="#9be9a8"><title>2025-09-04: 3 contributions</title></rect>
<rect x="522" y="67" width="11" height="11" rx="2" ry="2" fill="#9be9a8"><title>2025-09-05: 1 contributions</title></rect>
<rect x="522" y="80" width="11" height="11" rx="2" ry="2" fill="#ebedf0"><title>2025-09-06: 0 contributions</title></rect>
<rect x="535" y="2" width="11" height="11" rx="2" ry="2" fill="#ebedf0"><title>2025-09-07: 0 contributions</title></rect>
<rect x="535" y="15" width="11" height="11" rx="2" ry="2" fill="#ebedf0"><title>2025-09-08: 0 contributions</title></rect>
<rect x="535" y="28" width="11" height="11" rx="2" ry="2" fill="#ebedf0"><title>2025-09-09: 0 contributions</title></rect>
<rect x="535" y="41" width="11" height="11" rx="2" ry="2" fill="#ebedf0"><title>2025-09-10: 0 contributions</title></rect>
<rect x="535" y="54" width="11" height="11" rx="2" ry="2" fill="#ebedf0"><title>2025-09-11: 0 contributions</title></rect>
<rect x="535" y="67" width="11" height="11" rx="2" ry="2" fill="#ebedf0"><title>2025-09-12: 0 contributions</title></rect>
<rect x="535" y="80" width="11" height="11" rx="2" ry="2" fill="#ebedf0"><title>2025-09-13: 0 contributions</title></rect>
<rect x="548" y="2" width="11" height="11" rx="2" ry="2" fill="#ebedf0"><title>2025-09-14: 0 contributions</title></rect>
<rect x="548" y="15" width="11" height="11" rx="2" ry="2" fill="#9be9a8"><title>2025-09-15: 1 contributions</title></rect>
<rect x="548" y="28" width="11" height="11" rx="2" ry="2" fill="#ebedf0"><title>2025-09-16: 0 contributions</title></rect>
<rect x="548" y="41" width="11" height="11" rx="2" ry="2" fill="#40c463"><title>2025-09-17: 15 contributions</title></rect>
<rect x="548" y="54" width="11" height="11" rx="2" ry="2" fill="#30a14e"><title>2025-09-18: 27 contributions</title></rect>
<rect x="548" y="67" width="11" height="11" rx="2" ry="2" fill="#9be9a8"><title>2025-09-19: 1 contributions</title></rect>
<rect x="548" y="80" width="11" height="11" rx="2" ry="2" fill="#ebedf0"><title>2025-09-20: 0 contributions</title></rect>
<rect x="561" y="2" width="11" height="11" rx="2" ry="2" fill="#ebedf0"><title>2025-09-21: 0 contributions</title></rect>
<rect x="561" y="15" width="11" height="11" rx="2" ry="2" fill="#ebedf0"><title>2025-09-22: 0 contributions</title></rect>
<rect x="561" y="28" width="11" height="11" rx="2" ry="2" fill="#ebedf0"><title>2025-09-23: 0 contributions</title></rect>
<rect x="561" y="41" width="11" height="11" rx="2" ry="2" fill="#ebedf0"><title>2025-09-24: 0 contributions</title></rect>
<rect x="561" y="54" width="11" height="11" rx="2" ry="2" fill="#ebedf0"><title>2025-09-25: 0 contributions</title></rect>
<rect x="561" y="67" width="11" height="11" rx="2" ry="2" fill="#ebedf0"><title>2025-09-26: 0 contributions</title></rect>
<rect x="561" y="80" width="11" height="11" rx="2" ry="2" fill="#9be9a8"><title>2025-09-27: 2 contributions</title></rect>
<rect x="574" y="2" width="11" height="11" rx="2" ry="2" fill="#ebedf0"><title>2025-09-28: 0 contributions</title></rect>
<rect x="574" y="15" width="11" height="11" rx="2" ry="2" fill="#9be9a8"><title>2025-09-29: 1 contributions</title></rect>
<rect x="574" y="28" width="11" height="11" rx="2" ry="2" fill="#40c463"><title>2025-09-30: 25 contributions</title></rect>
<rect x="574" y="41" width="11" height="11" rx="2" ry="2" fill="#40c463"><title>2025-10-01: 21 contributions</title></rect>
<rect x="574" y="54" width="11" height="11" rx="2" ry="2" fill="#30a14e"><title>2025-10-02: 29 contributions</title></rect>
<rect x="574" y="67" width="11" height="11" rx="2" ry="2" fill="#216e39"><title>2025-10-03: 50 contributions</title></rect>
<rect x="574" y="80" width="11" height="11" rx="2" ry="2" fill="#9be9a8"><title>2025-10-04: 7 contributions</title></rect>
<rect x="587" y="2" width="11" height="11" rx="2" ry="2" fill="#9be9a8"><title>2025-10-05: 8 contributions</title></rect>
<rect x="587" y="15" width="11" height="11" rx="2" ry="2" fill="#9be9a8"><title>2025-10-06: 8 contributions</title></rect>
<rect x="587" y="28" width="11" height="11" rx="2" ry="2" fill="#ebedf0"><title>2025-10-07: 0 contributions</title></rect>
<rect x="587" y="41" width="11" height="11" rx="2" ry="2" fill="#9be9a8"><title>2025-10-08: 4 contributions</title></rect>
<rect x="587" y="54" width="11" height="11" rx="2" ry="2" fill="#9be9a8"><title>2025-10-09: 7 contributions</title></rect>
<rect x="587" y="67" width="11" height="11" rx="2" ry="2" fill="#216e39"><title>2025-10-10: 44 contributions</title></rect>
<rect x="587" y="80" width="11" height="11" rx="2" ry="2" fill="#30a14e"><title>2025-10-11: 35 contributions</title></rect>
<rect x="600" y="2" width="11" height="11" rx="2" ry="2" fill="#30a14e"><title>2025-10-12: 28 contributions</title></rect>
<rect x="600" y="15" width="11" height="11" rx="2" ry="2" fill="#9be9a8"><title>2025-10-13: 6 contributions</title></rect>
<rect x="600" y="28" width="11" height="11" rx="2" ry="2" fill="#216e39"><title>2025-10-14: 47 contributions</title></rect>
<rect x="600" y="41" width="11" height="11" rx="2" ry="2" fill="#9be9a8"><title>2025-10-15: 10 contributions</title></rect>
<rect x="600" y="54" width="11" height="11" rx="2" ry="2" fill="#40c463"><title>2025-10-16: 13 contributions</title></rect>
<rect x="600" y="67" width="11" height="11" rx="2" ry="2" fill="#9be9a8"><title>2025-10-17: 3 contributions</title></rect>
<rect x="600" y="80" width="11" height="11" rx="2" ry="2" fill="#ebedf0"><title>2025-10-18: 0 contributions</title></rect>
<rect x="613" y="2" width="11" height="11" rx="2" ry="2" fill="#ebedf0"><title>2025-10-19: 0 contributions</title></rect>
<rect x="613" y="15" width="11" height="11" rx="2" ry="2" fill="#9be9a8"><title>2025-10-20: 5 contributions</title></rect>
<rect x="613" y="28" width="11" height="11" rx="2" ry="2" fill="#40c463"><title>2025-10-21: 15 contributions</title></rect>
<rect x="613" y="41" width="11" height="11" rx="2" ry="2" fill="#216e39"><title>2025-10-22: 43 contributions</title></rect>
<rect x="613" y="54" width="11" height="11" rx="2" ry="2" fill="#9be9a8"><title>2025-10-23: 4 contributions</title></rect>
<rect x="613" y="67" width="11" height="11" rx="2" ry="2" fill="#9be9a8"><title>2025-10-24: 6 contributions</title></rect>
<rect x="613" y="80" width="11" height="11" rx="2" ry="2" fill="#9be9a8"><title>2025-10-25: 1 contributions</title></rect>
<rect x="626" y="2" width="11" height="11" rx="2" ry="2" fill="#ebedf0"><title>2025-10-26: 0 contributions</title></rect>
<rect x="626" y="15" width="11" height="11" rx="2" ry="2" fill="#9be9a8"><title>2025-10-27: 11 contributions</title></rect>
<rect x="626" y="28" width="11" height="11" rx="2" ry="2" fill="#ebedf0"><title>2025-10-28: 0 contributions</title></rect>
<rect x="626" y="41" width="11" height="11" rx="2" ry="2" fill="#9be9a8"><title>2025-10-29: 1 contributions</title></rect>
<rect x="626" y="54" width="11" height="11" rx="2" ry="2" fill="#40c463"><title>2025-10-30: 17 contributions</title></rect>
<rect x="626" y="67" width="11" height="11" rx="2" ry="2" fill="#ebedf0"><title>2025-10-31: 0 contributions</title></rect>
<rect x="626" y="80" width="11" height="11" rx="2" ry="2" fill="#ebedf0"><title>2025-11-01: 0 contributions</title></rect>
<rect x="639" y="2" width="11" height="11" rx="2" ry="2" fill="#9be9a8"><title>2025-11-02: 7 contributions</title></rect>
<rect x="639" y="15" width="11" height="11" rx="2" ry="2" fill="#9be9a8"><title>2025-11-03: 5 contributions</title></rect>
<rect x="639" y="28" width="11" height="11" rx="2" ry="2" fill="#9be9a8"><title>2025-11-04: 4 contributions</title></rect>
<rect x="639" y="41" width="11" height="11" rx="2" ry="2" fill="#9be9a8"><title>2025-11-05: 2 contributions</title></rect>
<rect x="639" y="54" width="11" height="11" rx="2" ry="2" fill="#216e39"><title>2025-11-06: 51 contributions</title></rect>
<rect x="639" y="67" width="11" height="11" rx="2" ry="2" fill="#ebedf0"><title>2025-11-07: 0 contributions</title></rect>
<rect x="639" y="80" width="11" height="11" rx="2" ry="2" fill="#9be9a8"><title>2025-11-08: 8 contributions</title></rect>
<rect x="652" y="2" width="11" height="11" rx="2" ry="2" fill="#9be9a8"><title>2025-11-09: 3 contributions</title></rect>
<rect x="652" y="15" width="11" height="11" rx="2" ry="2" fill="#40c463"><title>2025-11-10: 19 contributions</title></rect>
<rect x="652" y="28" width="11" height="11" rx="2" ry="2" fill="#9be9a8"><title>2025-11-11: 11 contributions</title></rect>
<rect x="652" y="41" width="11" height="11" rx="2" ry="2" fill="#9be9a8"><title>2025-11-12: 2 contributions</title></rect>
<rect x="652" y="54" width="11" height="11" rx="2" ry="2" fill="#9be9a8"><title>2025-11-13: 1 contributions</title></rect>
<rect x="652" y="67" width="11" height="11" rx="2" ry="2" fill="#9be9a8"><title>2025-11-14: 2 contributions</title></rect>
<rect x="652" y="80" width="11" height="11" rx="2" ry="2" fill="#ebedf0"><title>2025-11-15: 0 contributions</title></rect>
<rect x="665" y="2" width="11" height="11" rx="2" ry="2" fill="#ebedf0"><title>2025-11-16: 0 contributions</title></rect>
<rect x="665" y="15" width="11" height="11" rx="2" ry="2" fill="#40c463"><title>2025-11-17: 13 contributions</title></rect>
<rect x="665" y="28" width="11" height="11" rx="2" ry="2" fill="#ebedf0"><title>2025-11-18: 0 contributions</title></rect>
<rect x="665" y="41" width="11" height="11" rx="2" ry="2" fill="#9be9a8"><title>2025-11-19: 1 contributions</title></rect>
<rect x="665" y="54" width="11" height="11" rx="2" ry="2" fill="#ebedf0"><title>2025-11-20: 0 contributions</title></rect>
<rect x="665" y="67" width="11" height="11" rx="2" ry="2" fill="#ebedf0"><title>2025-11-21: 0 contributions</title></rect>
<rect x="665" y="80" width="11" height="11" rx="2" ry="2" fill="#ebedf0"><title>2025-11-22: 0 contributions</title></rect>
<rect x="678" y="2" width="11" height="11" rx="2" ry="2" fill="#ebedf0"><title>2025-11-23: 0 contributions</title></rect>
<rect x="678" y="15" width="11" height="11" rx="2" ry="2" fill="#9be9a8"><title>2025-11-24: 2 contributions</title></rect>
<rect x="678" y="28" width="11" height="11" rx="2" ry="2" fill="#9be9a8"><title>2025-11-25: 4 contributions</title></rect>
<rect x="678" y="41" width="11" height="11" rx="2" ry="2" fill="#9be9a8"><title>2025-11-26: 3 contributions</title></rect>
<rect x="678" y="54" width="11" height="11" rx="2" ry="2" fill="#ebedf0"><title>2025-11-27: 0 contributions</title></rect>
</svg>